<svg width="36" height="37" viewBox="0 0 36 37" fill="none" xmlns="http://www.w3.org/2000/svg">
<rect x="0.5" y="0.984619" width="35" height="35" rx="17.5" fill="#316BFF"/>
<rect x="0.5" y="0.984619" width="35" height="35" rx="17.5" stroke="#316BFF"/>
<rect x="0.5" y="0.984619" width="35" height="35" rx="17.5" stroke="black" stroke-opacity="0.2"/>
<path d="M19.2539 6.69165V10.1956H17.4492V6.69165H19.2539ZM19.0312 25.8284V28.969H17.2383V25.8284H19.0312ZM20.8008 22.0432C20.8008 21.5901 20.707 21.1956 20.5195 20.8596C20.3398 20.5159 20.043 20.2073 19.6289 19.9338C19.2148 19.6526 18.6602 19.3909 17.9648 19.1487C16.9648 18.7971 16.0898 18.4026 15.3398 17.9651C14.5977 17.5198 14.0195 16.9729 13.6055 16.3245C13.1992 15.6682 12.9961 14.8518 12.9961 13.8752C12.9961 12.9143 13.2148 12.0823 13.6523 11.3792C14.0977 10.676 14.7148 10.1331 15.5039 9.75024C16.293 9.36743 17.2148 9.17603 18.2695 9.17603C19.082 9.17603 19.8125 9.29712 20.4609 9.53931C21.1172 9.78149 21.6758 10.137 22.1367 10.6057C22.5977 11.0745 22.9492 11.6526 23.1914 12.3401C23.4414 13.0198 23.5664 13.801 23.5664 14.6838H20.7539C20.7539 14.1838 20.6953 13.7385 20.5781 13.3479C20.4688 12.9495 20.3047 12.6135 20.0859 12.3401C19.8672 12.0588 19.6016 11.844 19.2891 11.6956C18.9844 11.5471 18.6367 11.4729 18.2461 11.4729C17.6914 11.4729 17.2344 11.5784 16.875 11.7893C16.5156 11.9924 16.25 12.2737 16.0781 12.6331C15.9141 12.9924 15.832 13.4026 15.832 13.8635C15.832 14.3088 15.918 14.6995 16.0898 15.0354C16.2617 15.3713 16.5547 15.676 16.9688 15.9495C17.3906 16.2151 17.9688 16.4846 18.7031 16.7581C19.7109 17.1174 20.582 17.5198 21.3164 17.9651C22.0586 18.4026 22.6289 18.9456 23.0273 19.594C23.4336 20.2346 23.6367 21.0432 23.6367 22.0198C23.6367 23.0276 23.4023 23.8831 22.9336 24.5862C22.4727 25.2893 21.8242 25.8245 20.9883 26.1917C20.1602 26.551 19.1953 26.7307 18.0938 26.7307C17.3984 26.7307 16.707 26.6409 16.0195 26.4612C15.3398 26.2737 14.7227 25.969 14.168 25.5471C13.6133 25.1252 13.1719 24.5667 12.8438 23.8713C12.5156 23.1682 12.3516 22.3088 12.3516 21.2932H15.1875C15.1875 21.9026 15.2695 22.4104 15.4336 22.8167C15.5977 23.2229 15.8203 23.5432 16.1016 23.7776C16.3828 24.012 16.6953 24.1799 17.0391 24.2815C17.3906 24.3831 17.7422 24.4338 18.0938 24.4338C18.6797 24.4338 19.1719 24.3362 19.5703 24.1409C19.9766 23.9377 20.2812 23.6565 20.4844 23.2971C20.6953 22.9299 20.8008 22.512 20.8008 22.0432Z" fill="white"/>
</svg>
