<svg width="75" height="20" viewBox="0 0 75 20" fill="none" xmlns="http://www.w3.org/2000/svg">
<path d="M29.301 14.4146H27.7873V8.53564H25.8488V7.27588H31.2394V8.53564H29.301V14.4146ZM35.2678 8.85303C35.4696 8.85303 35.6372 8.86768 35.7707 8.89697L35.6584 10.2935C35.5379 10.2609 35.3915 10.2446 35.2189 10.2446C34.7437 10.2446 34.3726 10.3667 34.1057 10.6108C33.842 10.855 33.7101 11.1968 33.7101 11.6362V14.4146H32.2209V8.95557H33.3488L33.5685 9.87354H33.6418C33.8111 9.56755 34.0389 9.32178 34.3254 9.13623C34.6151 8.94743 34.9292 8.85303 35.2678 8.85303ZM36.6984 7.54443C36.6984 7.05941 36.9686 6.81689 37.509 6.81689C38.0493 6.81689 38.3195 7.05941 38.3195 7.54443C38.3195 7.77555 38.2512 7.95622 38.1144 8.08643C37.981 8.21338 37.7792 8.27686 37.509 8.27686C36.9686 8.27686 36.6984 8.03271 36.6984 7.54443ZM38.2512 14.4146H36.7619V8.95557H38.2512V14.4146ZM42.8166 14.5122C42.1753 14.5122 41.6724 14.2795 41.3078 13.814H41.2297C41.2818 14.2697 41.3078 14.5334 41.3078 14.605V16.8169H39.8185V8.95557H41.0295L41.2394 9.66357H41.3078C41.6561 9.12321 42.1721 8.85303 42.8557 8.85303C43.5002 8.85303 44.0047 9.10205 44.3693 9.6001C44.7339 10.0981 44.9162 10.7899 44.9162 11.6753C44.9162 12.258 44.8299 12.7642 44.6574 13.1938C44.4881 13.6235 44.2456 13.9507 43.9299 14.1753C43.6141 14.3999 43.243 14.5122 42.8166 14.5122ZM42.3771 10.0444C42.0093 10.0444 41.7407 10.1584 41.5715 10.3862C41.4022 10.6108 41.3143 10.9836 41.3078 11.5044V11.6655C41.3078 12.2515 41.3941 12.6714 41.5666 12.9253C41.7424 13.1792 42.0191 13.3062 42.3967 13.3062C43.064 13.3062 43.3976 12.756 43.3976 11.6558C43.3976 11.1187 43.3146 10.7166 43.1486 10.4497C42.9859 10.1795 42.7287 10.0444 42.3771 10.0444ZM48.9738 10.4058H51.8058V14.1069C51.3469 14.2567 50.9139 14.3608 50.507 14.4194C50.1034 14.4813 49.69 14.5122 49.2668 14.5122C48.1893 14.5122 47.3657 14.1965 46.7961 13.5649C46.2297 12.9302 45.9465 12.0203 45.9465 10.8354C45.9465 9.68311 46.2752 8.78467 46.9328 8.14014C47.5936 7.49561 48.5083 7.17334 49.6769 7.17334C50.4094 7.17334 51.1157 7.31982 51.7961 7.61279L51.2932 8.82373C50.7723 8.56331 50.2303 8.43311 49.6672 8.43311C49.0129 8.43311 48.4888 8.65283 48.0949 9.09229C47.701 9.53174 47.5041 10.1226 47.5041 10.8647C47.5041 11.6395 47.662 12.2319 47.9777 12.6421C48.2967 13.049 48.759 13.2524 49.3644 13.2524C49.6802 13.2524 50.0008 13.2199 50.3264 13.1548V11.6655H48.9738V10.4058ZM57.2599 14.4146L57.0598 13.7163H56.9816C56.8221 13.9702 56.5959 14.1672 56.3029 14.3071C56.0099 14.4438 55.6763 14.5122 55.3019 14.5122C54.6607 14.5122 54.1773 14.3413 53.8517 13.9995C53.5262 13.6545 53.3635 13.1597 53.3635 12.5151V8.95557H54.8527V12.144C54.8527 12.5379 54.9227 12.8341 55.0627 13.0327C55.2027 13.228 55.4256 13.3257 55.7316 13.3257C56.1483 13.3257 56.4494 13.1873 56.6349 12.9106C56.8205 12.6307 56.9133 12.1685 56.9133 11.5239V8.95557H58.4025V14.4146H57.2599ZM59.9016 7.54443C59.9016 7.05941 60.1717 6.81689 60.7121 6.81689C61.2525 6.81689 61.5226 7.05941 61.5226 7.54443C61.5226 7.77555 61.4543 7.95622 61.3176 8.08643C61.1841 8.21338 60.9823 8.27686 60.7121 8.27686C60.1717 8.27686 59.9016 8.03271 59.9016 7.54443ZM61.4543 14.4146H59.965V8.95557H61.4543V14.4146ZM64.7502 14.5122C64.1089 14.5122 63.6043 14.2632 63.2365 13.7651C62.8719 13.2671 62.6896 12.577 62.6896 11.6948C62.6896 10.7996 62.8752 10.103 63.2463 9.60498C63.6206 9.10368 64.1349 8.85303 64.7892 8.85303C65.4761 8.85303 66.0002 9.11995 66.3615 9.65381H66.4103C66.3355 9.24691 66.298 8.88395 66.298 8.56494V6.81689H67.7922V14.4146H66.6496L66.3615 13.7065H66.298C65.9595 14.2437 65.4435 14.5122 64.7502 14.5122ZM65.2726 13.3257C65.6535 13.3257 65.9318 13.215 66.1076 12.9937C66.2866 12.7723 66.3843 12.3963 66.4006 11.8657V11.7046C66.4006 11.1187 66.3094 10.6987 66.1271 10.4448C65.9481 10.1909 65.6551 10.064 65.2482 10.064C64.9162 10.064 64.6574 10.2056 64.4719 10.4888C64.2896 10.7687 64.1984 11.1772 64.1984 11.7144C64.1984 12.2515 64.2912 12.6551 64.4767 12.9253C64.6623 13.1922 64.9276 13.3257 65.2726 13.3257ZM71.6105 9.9126C71.2948 9.9126 71.0474 10.0135 70.8683 10.2153C70.6893 10.4139 70.5868 10.6971 70.5607 11.0649H72.6506C72.6441 10.6971 72.548 10.4139 72.3625 10.2153C72.1769 10.0135 71.9263 9.9126 71.6105 9.9126ZM71.8205 14.5122C70.9416 14.5122 70.2547 14.2697 69.7599 13.7847C69.2652 13.2996 69.0178 12.6128 69.0178 11.7241C69.0178 10.8094 69.2456 10.103 69.7014 9.60498C70.1603 9.10368 70.7935 8.85303 71.6008 8.85303C72.3723 8.85303 72.9728 9.07275 73.4025 9.51221C73.8322 9.95166 74.0471 10.5588 74.0471 11.3335V12.0562H70.5266C70.5428 12.4793 70.6682 12.8097 70.9025 13.0474C71.1369 13.285 71.4657 13.4038 71.8889 13.4038C72.2176 13.4038 72.5285 13.3696 72.8215 13.3013C73.1144 13.2329 73.4204 13.1239 73.7394 12.9741V14.1265C73.479 14.2567 73.2007 14.3527 72.9045 14.4146C72.6083 14.4797 72.2469 14.5122 71.8205 14.5122Z" fill="white"/>
<path d="M11.7177 0.941158C11.0526 0.574428 10.2477 0.572918 9.58118 0.93715L1.81698 5.18022C1.09898 5.5726 0.651953 6.32852 0.651942 7.1503L0.651855 13.6206C0.651844 14.4788 1.13892 15.2617 1.90634 15.637L3.00433 16.174C3.27403 15.5242 3.6006 14.8916 3.99433 14.3089C6.18284 11.07 7.72335 10.0231 9.15746 9.06447C9.26468 8.9928 9.26843 8.836 9.16491 8.75904L5.84106 6.28808C5.788 6.24863 5.7916 6.16768 5.84796 6.13316L6.85579 5.51589C6.90708 5.48447 6.97031 5.47992 7.02553 5.50368L9.20791 6.44275C9.26421 6.46698 9.32877 6.46175 9.38049 6.42877L10.1484 5.93917C10.1921 5.91129 10.2501 5.92474 10.2772 5.96908L10.7341 6.71495C10.7559 6.75055 10.7515 6.79638 10.7234 6.82717L10.6437 6.91436C10.6 6.96217 10.617 7.03913 10.6766 7.06392L11.6938 7.4865C11.7259 7.49982 11.7625 7.49396 11.7897 7.47222C12.2349 7.11599 13.3536 6.51104 14.7225 6.57684C14.8331 6.58216 14.9092 6.68709 14.8705 6.79138C14.6698 7.33159 14.032 8.28307 12.6062 8.96496C12.5768 8.97899 12.5562 9.00739 12.5527 9.03984L12.438 10.0873C12.432 10.1426 12.475 10.1909 12.5304 10.1909H12.6626C12.6969 10.1909 12.7283 10.2099 12.7445 10.2403L13.1403 10.9839C13.1635 11.0273 13.1491 11.0814 13.1074 11.1074L12.2764 11.6261C12.2526 11.6409 12.2367 11.6658 12.2332 11.6938L11.928 14.1258C11.9241 14.1565 11.9054 14.1833 11.878 14.1974L10.7544 14.773C10.6952 14.8033 10.6243 14.7632 10.6195 14.6965L10.314 10.4564C10.3094 10.3924 10.2439 10.3519 10.1862 10.3795C9.0802 10.9077 7.01142 12.5706 6.72357 15.4806C6.63011 16.4253 6.68681 17.2861 6.8547 18.0572L9.67536 19.4367C10.291 19.7378 11.0101 19.7378 11.6257 19.4367L19.3947 15.637C20.1622 15.2617 20.6492 14.4788 20.6492 13.6206V7.19342C20.6492 6.37463 20.2054 5.62095 19.4915 5.22732L11.7177 0.941158Z" fill="white"/>
</svg>
