<svg width="50" height="37" viewBox="0 0 50 37" fill="none" xmlns="http://www.w3.org/2000/svg">
<path d="M3.87354 34.2773H2.35986V28.3984H0.421387V27.1387H5.81201V28.3984H3.87354V34.2773ZM9.84033 28.7158C10.0422 28.7158 10.2098 28.7305 10.3433 28.7598L10.231 30.1562C10.1105 30.1237 9.96403 30.1074 9.7915 30.1074C9.31624 30.1074 8.94515 30.2295 8.67822 30.4736C8.41455 30.7178 8.28271 31.0596 8.28271 31.499V34.2773H6.79346V28.8184H7.92139L8.14111 29.7363H8.21436C8.38363 29.4303 8.61149 29.1846 8.89795 28.999C9.18766 28.8102 9.50179 28.7158 9.84033 28.7158ZM11.271 27.4072C11.271 26.9222 11.5412 26.6797 12.0815 26.6797C12.6219 26.6797 12.8921 26.9222 12.8921 27.4072C12.8921 27.6383 12.8237 27.819 12.687 27.9492C12.5535 28.0762 12.3517 28.1396 12.0815 28.1396C11.5412 28.1396 11.271 27.8955 11.271 27.4072ZM12.8237 34.2773H11.3345V28.8184H12.8237V34.2773ZM17.3892 34.375C16.7479 34.375 16.245 34.1423 15.8804 33.6768H15.8022C15.8543 34.1325 15.8804 34.3962 15.8804 34.4678V36.6797H14.3911V28.8184H15.6021L15.812 29.5264H15.8804C16.2287 28.986 16.7446 28.7158 17.4282 28.7158C18.0728 28.7158 18.5773 28.9648 18.9419 29.4629C19.3065 29.9609 19.4888 30.6527 19.4888 31.5381C19.4888 32.1208 19.4025 32.627 19.23 33.0566C19.0607 33.4863 18.8182 33.8135 18.5024 34.0381C18.1867 34.2627 17.8156 34.375 17.3892 34.375ZM16.9497 29.9072C16.5819 29.9072 16.3133 30.0212 16.144 30.249C15.9748 30.4736 15.8869 30.8464 15.8804 31.3672V31.5283C15.8804 32.1143 15.9666 32.5342 16.1392 32.7881C16.3149 33.042 16.5916 33.1689 16.9692 33.1689C17.6366 33.1689 17.9702 32.6188 17.9702 31.5186C17.9702 30.9814 17.8872 30.5794 17.7212 30.3125C17.5584 30.0423 17.3013 29.9072 16.9497 29.9072ZM23.5464 30.2686H26.3784V33.9697C25.9194 34.1195 25.4865 34.2236 25.0796 34.2822C24.6759 34.3441 24.2625 34.375 23.8394 34.375C22.7619 34.375 21.9383 34.0592 21.3687 33.4277C20.8022 32.793 20.519 31.8831 20.519 30.6982C20.519 29.5459 20.8478 28.6475 21.5054 28.0029C22.1662 27.3584 23.0809 27.0361 24.2495 27.0361C24.9819 27.0361 25.6883 27.1826 26.3687 27.4756L25.8657 28.6865C25.3449 28.4261 24.8029 28.2959 24.2397 28.2959C23.5854 28.2959 23.0614 28.5156 22.6675 28.9551C22.2736 29.3945 22.0767 29.9854 22.0767 30.7275C22.0767 31.5023 22.2345 32.0947 22.5503 32.5049C22.8693 32.9118 23.3315 33.1152 23.937 33.1152C24.2528 33.1152 24.5734 33.0827 24.8989 33.0176V31.5283H23.5464V30.2686ZM31.8325 34.2773L31.6323 33.5791H31.5542C31.3947 33.833 31.1685 34.0299 30.8755 34.1699C30.5825 34.3066 30.2489 34.375 29.8745 34.375C29.2332 34.375 28.7498 34.2041 28.4243 33.8623C28.0988 33.5173 27.936 33.0225 27.936 32.3779V28.8184H29.4253V32.0068C29.4253 32.4007 29.4953 32.6969 29.6353 32.8955C29.7752 33.0908 29.9982 33.1885 30.3042 33.1885C30.7209 33.1885 31.022 33.0501 31.2075 32.7734C31.3931 32.4935 31.4858 32.0312 31.4858 31.3867V28.8184H32.9751V34.2773H31.8325ZM34.4741 27.4072C34.4741 26.9222 34.7443 26.6797 35.2847 26.6797C35.825 26.6797 36.0952 26.9222 36.0952 27.4072C36.0952 27.6383 36.0269 27.819 35.8901 27.9492C35.7567 28.0762 35.5549 28.1396 35.2847 28.1396C34.7443 28.1396 34.4741 27.8955 34.4741 27.4072ZM36.0269 34.2773H34.5376V28.8184H36.0269V34.2773ZM39.3228 34.375C38.6815 34.375 38.1769 34.126 37.8091 33.6279C37.4445 33.1299 37.2622 32.4398 37.2622 31.5576C37.2622 30.6624 37.4478 29.9658 37.8188 29.4678C38.1932 28.9665 38.7075 28.7158 39.3618 28.7158C40.0487 28.7158 40.5728 28.9827 40.9341 29.5166H40.9829C40.908 29.1097 40.8706 28.7467 40.8706 28.4277V26.6797H42.3647V34.2773H41.2222L40.9341 33.5693H40.8706C40.5321 34.1064 40.0161 34.375 39.3228 34.375ZM39.8452 33.1885C40.2261 33.1885 40.5044 33.0778 40.6802 32.8564C40.8592 32.6351 40.9569 32.2591 40.9731 31.7285V31.5674C40.9731 30.9814 40.882 30.5615 40.6997 30.3076C40.5207 30.0537 40.2277 29.9268 39.8208 29.9268C39.4888 29.9268 39.23 30.0684 39.0444 30.3516C38.8621 30.6315 38.771 31.04 38.771 31.5771C38.771 32.1143 38.8638 32.5179 39.0493 32.7881C39.2349 33.055 39.5002 33.1885 39.8452 33.1885ZM46.1831 29.7754C45.8674 29.7754 45.62 29.8763 45.4409 30.0781C45.2619 30.2767 45.1593 30.5599 45.1333 30.9277H47.2231C47.2166 30.5599 47.1206 30.2767 46.9351 30.0781C46.7495 29.8763 46.4989 29.7754 46.1831 29.7754ZM46.3931 34.375C45.5142 34.375 44.8273 34.1325 44.3325 33.6475C43.8377 33.1624 43.5903 32.4756 43.5903 31.5869C43.5903 30.6722 43.8182 29.9658 44.2739 29.4678C44.7329 28.9665 45.366 28.7158 46.1733 28.7158C46.9448 28.7158 47.5454 28.9355 47.9751 29.375C48.4048 29.8145 48.6196 30.4215 48.6196 31.1963V31.9189H45.0991C45.1154 32.3421 45.2407 32.6725 45.4751 32.9102C45.7095 33.1478 46.0382 33.2666 46.4614 33.2666C46.7902 33.2666 47.1011 33.2324 47.394 33.1641C47.687 33.0957 47.993 32.9867 48.312 32.8369V33.9893C48.0516 34.1195 47.7733 34.2155 47.4771 34.2773C47.1808 34.3424 46.8195 34.375 46.3931 34.375Z" fill="#222529"/>
<path d="M25.7852 1.04565C25.12 0.67892 24.3151 0.67741 23.6486 1.04164L15.8844 5.28471C15.1664 5.67709 14.7194 6.43302 14.7194 7.25479L14.7193 13.7251C14.7193 14.5832 15.2064 15.3662 15.9738 15.7415L17.0718 16.2785C17.3415 15.6287 17.668 14.9961 18.0618 14.4134C20.2503 11.1745 21.7908 10.1276 23.2249 9.16896C23.3321 9.09729 23.3359 8.94049 23.2324 8.86353L19.9085 6.39257C19.8554 6.35312 19.859 6.27217 19.9154 6.23765L20.9232 5.62038C20.9745 5.58896 21.0378 5.58441 21.093 5.60817L23.2753 6.54725C23.3317 6.57147 23.3962 6.56624 23.4479 6.53327L24.2158 6.04366C24.2596 6.01578 24.3175 6.02923 24.3447 6.07357L24.8015 6.81945C24.8233 6.85504 24.8189 6.90087 24.7908 6.93166L24.7111 7.01885C24.6674 7.06667 24.6844 7.14362 24.7441 7.16841L25.7612 7.59099C25.7933 7.60432 25.83 7.59845 25.8571 7.57671C26.3023 7.22048 27.4211 6.61553 28.79 6.68133C28.9006 6.68665 28.9766 6.79158 28.9379 6.89587C28.7373 7.43608 28.0994 8.38756 26.6736 9.06946C26.6443 9.08348 26.6237 9.11188 26.6201 9.14433L26.5055 10.1918C26.4994 10.2471 26.5425 10.2954 26.5978 10.2954H26.73C26.7643 10.2954 26.7958 10.3144 26.8119 10.3448L27.2078 11.0884C27.2309 11.1318 27.2165 11.1859 27.1749 11.2119L26.3438 11.7306C26.32 11.7454 26.3042 11.7703 26.3007 11.7983L25.9954 14.2303C25.9916 14.261 25.9728 14.2878 25.9454 14.3019L24.8218 14.8775C24.7626 14.9078 24.6918 14.8676 24.687 14.801L24.3815 10.5609C24.3768 10.4969 24.3114 10.4564 24.2537 10.484C23.1476 11.0122 21.0789 12.6751 20.791 15.585C20.6976 16.5298 20.7543 17.3906 20.9221 18.1617L23.7428 19.5412C24.3584 19.8423 25.0775 19.8423 25.6932 19.5412L33.4622 15.7415C34.2296 15.3662 34.7167 14.5833 34.7167 13.7251V7.29791C34.7167 6.47913 34.2729 5.72544 33.5589 5.33181L25.7852 1.04565Z" fill="#316BFF"/>
</svg>
