<svg width="21" height="20" viewBox="0 0 21 20" fill="none" xmlns="http://www.w3.org/2000/svg">
<path d="M11.8577 0.305904C11.1926 -0.0608261 10.3877 -0.0623362 9.72116 0.301896L1.95697 4.54496C1.23897 4.93734 0.791937 5.69327 0.791926 6.51504L0.79184 12.9853C0.791828 13.8435 1.2789 14.6264 2.04633 15.0017L3.14431 15.5388C3.41402 14.889 3.74059 14.2564 4.13432 13.6737C6.32282 10.4347 7.86334 9.38782 9.29744 8.42921C9.40466 8.35755 9.40842 8.20074 9.30489 8.12378L5.98105 5.65283C5.92798 5.61338 5.93159 5.53243 5.98795 5.49791L6.99577 4.88063C7.04706 4.84921 7.1103 4.84467 7.16551 4.86843L9.34789 5.8075C9.40419 5.83173 9.46875 5.8265 9.52048 5.79352L10.2884 5.30392C10.3321 5.27603 10.3901 5.28949 10.4172 5.33382L10.8741 6.0797C10.8959 6.1153 10.8915 6.16113 10.8634 6.19191L10.7837 6.2791C10.74 6.32692 10.7569 6.40387 10.8166 6.42867L11.8338 6.85124C11.8659 6.86457 11.9025 6.8587 11.9297 6.83697C12.3749 6.48073 13.4936 5.87578 14.8625 5.94159C14.9731 5.9469 15.0492 6.05184 15.0105 6.15613C14.8098 6.69634 14.172 7.64781 12.7462 8.32971C12.7168 8.34373 12.6962 8.37213 12.6927 8.40459L12.578 9.45204C12.5719 9.50735 12.615 9.55569 12.6703 9.55569H12.8026C12.8368 9.55569 12.8683 9.57465 12.8845 9.60502L13.2803 10.3486C13.3035 10.3921 13.2891 10.4461 13.2474 10.4721L12.4164 10.9908C12.3926 11.0057 12.3767 11.0306 12.3732 11.0585L12.068 13.4906C12.0641 13.5213 12.0454 13.5481 12.018 13.5621L10.8944 14.1377C10.8351 14.1681 10.7643 14.1279 10.7595 14.0612L10.454 9.82116C10.4494 9.75713 10.3839 9.71666 10.3262 9.74421C9.22019 10.2725 7.1514 11.9353 6.86355 14.8453C6.7701 15.7901 6.82679 16.6509 6.99468 17.4219L9.81535 18.8015C10.431 19.1026 11.1501 19.1026 11.7657 18.8015L19.5347 15.0017C20.3021 14.6264 20.7892 13.8435 20.7892 12.9853V6.55817C20.7892 5.73938 20.3454 4.9857 19.6315 4.59206L11.8577 0.305904Z" fill="white"/>
</svg>
