<svg width="50" height="37" viewBox="0 0 50 37" fill="none" xmlns="http://www.w3.org/2000/svg">
<path d="M3.87378 34.0825H2.36011V28.2036H0.421631V26.9438H5.81226V28.2036H3.87378V34.0825ZM9.84058 28.521C10.0424 28.521 10.21 28.5356 10.3435 28.5649L10.2312 29.9614C10.1108 29.9289 9.96427 29.9126 9.79175 29.9126C9.31649 29.9126 8.94539 30.0347 8.67847 30.2788C8.41479 30.5229 8.28296 30.8647 8.28296 31.3042V34.0825H6.7937V28.6235H7.92163L8.14136 29.5415H8.2146C8.38387 29.2355 8.61174 28.9897 8.89819 28.8042C9.18791 28.6154 9.50203 28.521 9.84058 28.521ZM11.2712 27.2124C11.2712 26.7274 11.5414 26.4849 12.0818 26.4849C12.6222 26.4849 12.8923 26.7274 12.8923 27.2124C12.8923 27.4435 12.824 27.6242 12.6873 27.7544C12.5538 27.8813 12.352 27.9448 12.0818 27.9448C11.5414 27.9448 11.2712 27.7007 11.2712 27.2124ZM12.824 34.0825H11.3347V28.6235H12.824V34.0825ZM17.3894 34.1802C16.7481 34.1802 16.2452 33.9474 15.8806 33.4819H15.8025C15.8546 33.9377 15.8806 34.2013 15.8806 34.2729V36.4849H14.3914V28.6235H15.6023L15.8123 29.3315H15.8806C16.2289 28.7912 16.7449 28.521 17.4285 28.521C18.073 28.521 18.5776 28.77 18.9421 29.2681C19.3067 29.7661 19.489 30.4578 19.489 31.3433C19.489 31.9259 19.4028 32.4321 19.2302 32.8618C19.061 33.2915 18.8184 33.6187 18.5027 33.8433C18.1869 34.0679 17.8158 34.1802 17.3894 34.1802ZM16.95 29.7124C16.5821 29.7124 16.3136 29.8263 16.1443 30.0542C15.975 30.2788 15.8871 30.6515 15.8806 31.1724V31.3335C15.8806 31.9194 15.9669 32.3394 16.1394 32.5933C16.3152 32.8472 16.5919 32.9741 16.9695 32.9741C17.6368 32.9741 17.9705 32.424 17.9705 31.3237C17.9705 30.7866 17.8875 30.3846 17.7214 30.1177C17.5587 29.8475 17.3015 29.7124 16.95 29.7124ZM23.5466 30.0737H26.3787V33.7749C25.9197 33.9246 25.4867 34.0288 25.0798 34.0874C24.6762 34.1493 24.2628 34.1802 23.8396 34.1802C22.7621 34.1802 21.9386 33.8644 21.3689 33.2329C20.8025 32.5981 20.5193 31.6883 20.5193 30.5034C20.5193 29.3511 20.8481 28.4526 21.5056 27.8081C22.1664 27.1636 23.0811 26.8413 24.2498 26.8413C24.9822 26.8413 25.6886 26.9878 26.3689 27.2808L25.866 28.4917C25.3451 28.2313 24.8031 28.1011 24.24 28.1011C23.5857 28.1011 23.0616 28.3208 22.6677 28.7603C22.2738 29.1997 22.0769 29.7905 22.0769 30.5327C22.0769 31.3075 22.2348 31.8999 22.5505 32.3101C22.8695 32.717 23.3318 32.9204 23.9373 32.9204C24.253 32.9204 24.5736 32.8879 24.8992 32.8228V31.3335H23.5466V30.0737ZM31.8328 34.0825L31.6326 33.3843H31.5544C31.3949 33.6382 31.1687 33.8351 30.8757 33.9751C30.5828 34.1118 30.2491 34.1802 29.8748 34.1802C29.2335 34.1802 28.7501 34.0093 28.4246 33.6675C28.099 33.3224 27.9363 32.8276 27.9363 32.1831V28.6235H29.4255V31.812C29.4255 32.2059 29.4955 32.5021 29.6355 32.7007C29.7755 32.896 29.9985 32.9937 30.3044 32.9937C30.7211 32.9937 31.0222 32.8553 31.2078 32.5786C31.3933 32.2987 31.4861 31.8364 31.4861 31.1919V28.6235H32.9753V34.0825H31.8328ZM34.4744 27.2124C34.4744 26.7274 34.7445 26.4849 35.2849 26.4849C35.8253 26.4849 36.0955 26.7274 36.0955 27.2124C36.0955 27.4435 36.0271 27.6242 35.8904 27.7544C35.7569 27.8813 35.5551 27.9448 35.2849 27.9448C34.7445 27.9448 34.4744 27.7007 34.4744 27.2124ZM36.0271 34.0825H34.5378V28.6235H36.0271V34.0825ZM39.323 34.1802C38.6817 34.1802 38.1772 33.9312 37.8093 33.4331C37.4447 32.9351 37.2625 32.245 37.2625 31.3628C37.2625 30.4676 37.448 29.771 37.8191 29.2729C38.1934 28.7716 38.7078 28.521 39.3621 28.521C40.0489 28.521 40.573 28.7879 40.9343 29.3218H40.9832C40.9083 28.9149 40.8708 28.5519 40.8708 28.2329V26.4849H42.365V34.0825H41.2224L40.9343 33.3745H40.8708C40.5323 33.9116 40.0164 34.1802 39.323 34.1802ZM39.8455 32.9937C40.2263 32.9937 40.5046 32.883 40.6804 32.6616C40.8595 32.4403 40.9571 32.0643 40.9734 31.5337V31.3726C40.9734 30.7866 40.8822 30.3667 40.7 30.1128C40.5209 29.8589 40.2279 29.7319 39.821 29.7319C39.489 29.7319 39.2302 29.8735 39.0447 30.1567C38.8624 30.4367 38.7712 30.8452 38.7712 31.3823C38.7712 31.9194 38.864 32.3231 39.0496 32.5933C39.2351 32.8602 39.5004 32.9937 39.8455 32.9937ZM46.1833 29.5806C45.8676 29.5806 45.6202 29.6815 45.4412 29.8833C45.2621 30.0819 45.1596 30.3651 45.1335 30.7329H47.2234C47.2169 30.3651 47.1208 30.0819 46.9353 29.8833C46.7498 29.6815 46.4991 29.5806 46.1833 29.5806ZM46.3933 34.1802C45.5144 34.1802 44.8276 33.9377 44.3328 33.4526C43.838 32.9676 43.5906 32.2808 43.5906 31.3921C43.5906 30.4774 43.8184 29.771 44.2742 29.2729C44.7332 28.7716 45.3663 28.521 46.1736 28.521C46.9451 28.521 47.5457 28.7407 47.9753 29.1802C48.405 29.6196 48.6199 30.2267 48.6199 31.0015V31.7241H45.0994C45.1156 32.1473 45.241 32.4777 45.4753 32.7153C45.7097 32.953 46.0385 33.0718 46.4617 33.0718C46.7904 33.0718 47.1013 33.0376 47.3943 32.9692C47.6873 32.9009 47.9932 32.7918 48.3123 32.6421V33.7944C48.0518 33.9246 47.7735 34.0207 47.4773 34.0825C47.1811 34.1476 46.8197 34.1802 46.3933 34.1802Z" fill="white"/>
<path d="M25.7854 0.850826C25.1203 0.484096 24.3154 0.482586 23.6489 0.846817L15.8847 5.08988C15.1667 5.48226 14.7196 6.23819 14.7196 7.05996L14.7195 13.5302C14.7195 14.3884 15.2066 15.1713 15.974 15.5467L17.072 16.0837C17.3417 15.4339 17.6683 14.8013 18.062 14.2186C20.2505 10.9796 21.791 9.93274 23.2251 8.97414C23.3324 8.90247 23.3361 8.74567 23.2326 8.66871L19.9087 6.19775C19.8557 6.1583 19.8593 6.07735 19.9156 6.04283L20.9235 5.42555C20.9748 5.39414 21.038 5.38959 21.0932 5.41335L23.2756 6.35242C23.3319 6.37665 23.3965 6.37142 23.4482 6.33844L24.2161 5.84884C24.2598 5.82096 24.3178 5.83441 24.3449 5.87875L24.8018 6.62462C24.8236 6.66022 24.8192 6.70605 24.7911 6.73683L24.7114 6.82403C24.6677 6.87184 24.6846 6.94879 24.7443 6.97359L25.7615 7.39616C25.7936 7.40949 25.8302 7.40362 25.8574 7.38189C26.3026 7.02565 27.4213 6.4207 28.7902 6.48651C28.9008 6.49183 28.9769 6.59676 28.9382 6.70105C28.7375 7.24126 28.0997 8.19274 26.6739 8.87463C26.6445 8.88866 26.6239 8.91705 26.6204 8.94951L26.5057 9.99696C26.4996 10.0523 26.5427 10.1006 26.598 10.1006H26.7303C26.7645 10.1006 26.796 10.1196 26.8122 10.1499L27.208 10.8936C27.2312 10.937 27.2168 10.991 27.1751 11.017L26.3441 11.5358C26.3203 11.5506 26.3044 11.5755 26.3009 11.6034L25.9957 14.0355C25.9918 14.0662 25.9731 14.093 25.9457 14.107L24.8221 14.6827C24.7628 14.713 24.692 14.6728 24.6872 14.6062L24.3817 10.3661C24.3771 10.302 24.3116 10.2616 24.2539 10.2891C23.1479 10.8174 21.0791 12.4803 20.7913 15.3902C20.6978 16.335 20.7545 17.1958 20.9224 17.9668L23.7431 19.3464C24.3587 19.6475 25.0778 19.6475 25.6934 19.3464L33.4624 15.5467C34.2298 15.1713 34.7169 14.3884 34.7169 13.5303V7.10309C34.7169 6.2843 34.2731 5.53062 33.5592 5.13698L25.7854 0.850826Z" fill="white"/>
</svg>
