<svg width="21" height="20" viewBox="0 0 21 20" fill="none" xmlns="http://www.w3.org/2000/svg">
<path d="M11.8574 0.633052C11.1922 0.266322 10.3873 0.264812 9.72083 0.629044L1.95663 4.87211C1.23863 5.26449 0.791602 6.02042 0.791591 6.84219L0.791504 13.3125C0.791492 14.1706 1.27857 14.9536 2.04599 15.3289L3.14398 15.8659C3.41368 15.2161 3.74025 14.5835 4.13398 14.0008C6.32249 10.7619 7.863 9.71497 9.29711 8.75636C9.40432 8.6847 9.40808 8.52789 9.30456 8.45093L5.98071 5.97998C5.92764 5.94053 5.93125 5.85958 5.98761 5.82506L6.99543 5.20778C7.04673 5.17636 7.10996 5.17182 7.16518 5.19558L9.34755 6.13465C9.40386 6.15887 9.46842 6.15365 9.52014 6.12067L10.288 5.63107C10.3318 5.60318 10.3897 5.61664 10.4169 5.66097L10.8737 6.40685C10.8955 6.44245 10.8912 6.48828 10.863 6.51906L10.7833 6.60625C10.7397 6.65407 10.7566 6.73102 10.8163 6.75581L11.8334 7.17839C11.8655 7.19172 11.9022 7.18585 11.9293 7.16412C12.3745 6.80788 13.4933 6.20293 14.8622 6.26874C14.9728 6.27405 15.0488 6.37899 15.0101 6.48327C14.8095 7.02349 14.1716 7.97496 12.7458 8.65686C12.7165 8.67088 12.6959 8.69928 12.6923 8.73174L12.5777 9.77919C12.5716 9.8345 12.6147 9.88284 12.67 9.88284H12.8022C12.8365 9.88284 12.868 9.9018 12.8842 9.93217L13.28 10.6758C13.3031 10.7192 13.2887 10.7733 13.2471 10.7993L12.416 11.318C12.3922 11.3328 12.3764 11.3577 12.3729 11.3857L12.0676 13.8177C12.0638 13.8484 12.0451 13.8752 12.0176 13.8893L10.894 14.4649C10.8348 14.4952 10.764 14.455 10.7592 14.3884L10.4537 10.1483C10.449 10.0843 10.3836 10.0438 10.3259 10.0714C9.21985 10.5996 7.15106 12.2625 6.86321 15.1724C6.76976 16.1172 6.82646 16.978 6.99435 17.7491L9.81501 19.1286C10.4307 19.4297 11.1497 19.4297 11.7654 19.1286L19.5344 15.3289C20.3018 14.9536 20.7889 14.1707 20.7889 13.3125V6.88531C20.7889 6.06653 20.3451 5.31285 19.6311 4.91921L11.8574 0.633052Z" fill="#316BFF"/>
</svg>
