<svg width="75" height="20" viewBox="0 0 75 20" fill="none" xmlns="http://www.w3.org/2000/svg">
<path d="M29.301 14.6147H27.7873V8.73584H25.8488V7.47607H31.2394V8.73584H29.301V14.6147ZM35.2678 9.05322C35.4696 9.05322 35.6372 9.06787 35.7707 9.09717L35.6584 10.4937C35.5379 10.4611 35.3915 10.4448 35.2189 10.4448C34.7437 10.4448 34.3726 10.5669 34.1057 10.811C33.842 11.0552 33.7101 11.397 33.7101 11.8364V14.6147H32.2209V9.15576H33.3488L33.5685 10.0737H33.6418C33.8111 9.76774 34.0389 9.52197 34.3254 9.33643C34.6151 9.14762 34.9292 9.05322 35.2678 9.05322ZM36.6984 7.74463C36.6984 7.2596 36.9686 7.01709 37.509 7.01709C38.0493 7.01709 38.3195 7.2596 38.3195 7.74463C38.3195 7.97575 38.2512 8.15641 38.1144 8.28662C37.981 8.41357 37.7792 8.47705 37.509 8.47705C36.9686 8.47705 36.6984 8.23291 36.6984 7.74463ZM38.2512 14.6147H36.7619V9.15576H38.2512V14.6147ZM42.8166 14.7124C42.1753 14.7124 41.6724 14.4797 41.3078 14.0142H41.2297C41.2818 14.4699 41.3078 14.7336 41.3078 14.8052V17.0171H39.8185V9.15576H41.0295L41.2394 9.86377H41.3078C41.6561 9.3234 42.1721 9.05322 42.8557 9.05322C43.5002 9.05322 44.0047 9.30225 44.3693 9.80029C44.7339 10.2983 44.9162 10.9901 44.9162 11.8755C44.9162 12.4582 44.8299 12.9644 44.6574 13.394C44.4881 13.8237 44.2456 14.1509 43.9299 14.3755C43.6141 14.6001 43.243 14.7124 42.8166 14.7124ZM42.3771 10.2446C42.0093 10.2446 41.7407 10.3586 41.5715 10.5864C41.4022 10.811 41.3143 11.1838 41.3078 11.7046V11.8657C41.3078 12.4517 41.3941 12.8716 41.5666 13.1255C41.7424 13.3794 42.0191 13.5063 42.3967 13.5063C43.064 13.5063 43.3976 12.9562 43.3976 11.856C43.3976 11.3188 43.3146 10.9168 43.1486 10.6499C42.9859 10.3797 42.7287 10.2446 42.3771 10.2446ZM48.9738 10.606H51.8058V14.3071C51.3469 14.4569 50.9139 14.561 50.507 14.6196C50.1034 14.6815 49.69 14.7124 49.2668 14.7124C48.1893 14.7124 47.3657 14.3966 46.7961 13.7651C46.2297 13.1304 45.9465 12.2205 45.9465 11.0356C45.9465 9.8833 46.2752 8.98486 46.9328 8.34033C47.5936 7.6958 48.5083 7.37354 49.6769 7.37354C50.4094 7.37354 51.1157 7.52002 51.7961 7.81299L51.2932 9.02393C50.7723 8.76351 50.2303 8.6333 49.6672 8.6333C49.0129 8.6333 48.4888 8.85303 48.0949 9.29248C47.701 9.73193 47.5041 10.3228 47.5041 11.0649C47.5041 11.8397 47.662 12.4321 47.9777 12.8423C48.2967 13.2492 48.759 13.4526 49.3644 13.4526C49.6802 13.4526 50.0008 13.4201 50.3264 13.355V11.8657H48.9738V10.606ZM57.2599 14.6147L57.0598 13.9165H56.9816C56.8221 14.1704 56.5959 14.3674 56.3029 14.5073C56.0099 14.644 55.6763 14.7124 55.3019 14.7124C54.6607 14.7124 54.1773 14.5415 53.8517 14.1997C53.5262 13.8547 53.3635 13.3599 53.3635 12.7153V9.15576H54.8527V12.3442C54.8527 12.7381 54.9227 13.0343 55.0627 13.2329C55.2027 13.4282 55.4256 13.5259 55.7316 13.5259C56.1483 13.5259 56.4494 13.3875 56.6349 13.1108C56.8205 12.8309 56.9133 12.3687 56.9133 11.7241V9.15576H58.4025V14.6147H57.2599ZM59.9016 7.74463C59.9016 7.2596 60.1717 7.01709 60.7121 7.01709C61.2525 7.01709 61.5226 7.2596 61.5226 7.74463C61.5226 7.97575 61.4543 8.15641 61.3176 8.28662C61.1841 8.41357 60.9823 8.47705 60.7121 8.47705C60.1717 8.47705 59.9016 8.23291 59.9016 7.74463ZM61.4543 14.6147H59.965V9.15576H61.4543V14.6147ZM64.7502 14.7124C64.1089 14.7124 63.6043 14.4634 63.2365 13.9653C62.8719 13.4673 62.6896 12.7772 62.6896 11.895C62.6896 10.9998 62.8752 10.3032 63.2463 9.80518C63.6206 9.30387 64.1349 9.05322 64.7892 9.05322C65.4761 9.05322 66.0002 9.32015 66.3615 9.854H66.4103C66.3355 9.4471 66.298 9.08415 66.298 8.76514V7.01709H67.7922V14.6147H66.6496L66.3615 13.9067H66.298C65.9595 14.4438 65.4435 14.7124 64.7502 14.7124ZM65.2726 13.5259C65.6535 13.5259 65.9318 13.4152 66.1076 13.1938C66.2866 12.9725 66.3843 12.5965 66.4006 12.0659V11.9048C66.4006 11.3188 66.3094 10.8989 66.1271 10.645C65.9481 10.3911 65.6551 10.2642 65.2482 10.2642C64.9162 10.2642 64.6574 10.4058 64.4719 10.689C64.2896 10.9689 64.1984 11.3774 64.1984 11.9146C64.1984 12.4517 64.2912 12.8553 64.4767 13.1255C64.6623 13.3924 64.9276 13.5259 65.2726 13.5259ZM71.6105 10.1128C71.2948 10.1128 71.0474 10.2137 70.8683 10.4155C70.6893 10.6141 70.5868 10.8973 70.5607 11.2651H72.6506C72.6441 10.8973 72.548 10.6141 72.3625 10.4155C72.1769 10.2137 71.9263 10.1128 71.6105 10.1128ZM71.8205 14.7124C70.9416 14.7124 70.2547 14.4699 69.7599 13.9849C69.2652 13.4998 69.0178 12.813 69.0178 11.9243C69.0178 11.0096 69.2456 10.3032 69.7014 9.80518C70.1603 9.30387 70.7935 9.05322 71.6008 9.05322C72.3723 9.05322 72.9728 9.27295 73.4025 9.7124C73.8322 10.1519 74.0471 10.759 74.0471 11.5337V12.2563H70.5266C70.5428 12.6795 70.6682 13.0099 70.9025 13.2476C71.1369 13.4852 71.4657 13.604 71.8889 13.604C72.2176 13.604 72.5285 13.5698 72.8215 13.5015C73.1144 13.4331 73.4204 13.3241 73.7394 13.1743V14.3267C73.479 14.4569 73.2007 14.5529 72.9045 14.6147C72.6083 14.6799 72.2469 14.7124 71.8205 14.7124Z" fill="#222529"/>
<path d="M11.7177 1.14135C11.0526 0.774623 10.2477 0.773113 9.58118 1.13734L1.81698 5.38041C1.09898 5.77279 0.651953 6.52872 0.651942 7.35049L0.651855 13.8208C0.651844 14.6789 1.13892 15.4619 1.90634 15.8372L3.00433 16.3742C3.27403 15.7244 3.6006 15.0918 3.99433 14.5091C6.18284 11.2702 7.72335 10.2233 9.15746 9.26466C9.26468 9.193 9.26843 9.03619 9.16491 8.95923L5.84106 6.48828C5.788 6.44883 5.7916 6.36788 5.84796 6.33336L6.85579 5.71608C6.90708 5.68466 6.97031 5.68012 7.02553 5.70388L9.20791 6.64295C9.26421 6.66718 9.32877 6.66195 9.38049 6.62897L10.1484 6.13937C10.1921 6.11148 10.2501 6.12494 10.2772 6.16927L10.7341 6.91515C10.7559 6.95075 10.7515 6.99658 10.7234 7.02736L10.6437 7.11455C10.6 7.16237 10.617 7.23932 10.6766 7.26412L11.6938 7.68669C11.7259 7.70002 11.7625 7.69415 11.7897 7.67242C12.2349 7.31618 13.3536 6.71123 14.7225 6.77704C14.8331 6.78235 14.9092 6.88729 14.8705 6.99158C14.6698 7.53179 14.032 8.48326 12.6062 9.16516C12.5768 9.17918 12.5562 9.20758 12.5527 9.24004L12.438 10.2875C12.432 10.3428 12.475 10.3911 12.5304 10.3911H12.6626C12.6969 10.3911 12.7283 10.4101 12.7445 10.4405L13.1403 11.1841C13.1635 11.2275 13.1491 11.2816 13.1074 11.3076L12.2764 11.8263C12.2526 11.8411 12.2367 11.866 12.2332 11.894L11.928 14.326C11.9241 14.3567 11.9054 14.3835 11.878 14.3976L10.7544 14.9732C10.6952 15.0035 10.6243 14.9633 10.6195 14.8967L10.314 10.6566C10.3094 10.5926 10.2439 10.5521 10.1862 10.5797C9.0802 11.1079 7.01142 12.7708 6.72357 15.6807C6.63011 16.6255 6.68681 17.4863 6.8547 18.2574L9.67536 19.6369C10.291 19.938 11.0101 19.938 11.6257 19.6369L19.3947 15.8372C20.1622 15.4619 20.6492 14.679 20.6492 13.8208V7.39361C20.6492 6.57483 20.2054 5.82115 19.4915 5.42751L11.7177 1.14135Z" fill="#316BFF"/>
</svg>
