<svg width="36" height="37" viewBox="0 0 36 37" fill="none" xmlns="http://www.w3.org/2000/svg">
<rect x="0.5" y="1.48706" width="35" height="35" rx="17.5" fill="#FA8F54"/>
<rect x="0.5" y="1.48706" width="35" height="35" rx="17.5" stroke="#FF823C"/>
<path d="M19.2539 7.19409V10.698H17.4492V7.19409H19.2539ZM19.0312 26.3308V29.4714H17.2383V26.3308H19.0312ZM20.8008 22.5457C20.8008 22.0925 20.707 21.698 20.5195 21.3621C20.3398 21.0183 20.043 20.7097 19.6289 20.4363C19.2148 20.155 18.6602 19.8933 17.9648 19.6511C16.9648 19.2996 16.0898 18.905 15.3398 18.4675C14.5977 18.0222 14.0195 17.4753 13.6055 16.8269C13.1992 16.1707 12.9961 15.3542 12.9961 14.3777C12.9961 13.4167 13.2148 12.5847 13.6523 11.8816C14.0977 11.1785 14.7148 10.6355 15.5039 10.2527C16.293 9.86987 17.2148 9.67847 18.2695 9.67847C19.082 9.67847 19.8125 9.79956 20.4609 10.0417C21.1172 10.2839 21.6758 10.6394 22.1367 11.1082C22.5977 11.5769 22.9492 12.155 23.1914 12.8425C23.4414 13.5222 23.5664 14.3035 23.5664 15.1863H20.7539C20.7539 14.6863 20.6953 14.241 20.5781 13.8503C20.4688 13.4519 20.3047 13.116 20.0859 12.8425C19.8672 12.5613 19.6016 12.3464 19.2891 12.198C18.9844 12.0496 18.6367 11.9753 18.2461 11.9753C17.6914 11.9753 17.2344 12.0808 16.875 12.2917C16.5156 12.4949 16.25 12.7761 16.0781 13.1355C15.9141 13.4949 15.832 13.905 15.832 14.366C15.832 14.8113 15.918 15.2019 16.0898 15.5378C16.2617 15.8738 16.5547 16.1785 16.9688 16.4519C17.3906 16.7175 17.9688 16.9871 18.7031 17.2605C19.7109 17.6199 20.582 18.0222 21.3164 18.4675C22.0586 18.905 22.6289 19.448 23.0273 20.0964C23.4336 20.7371 23.6367 21.5457 23.6367 22.5222C23.6367 23.53 23.4023 24.3855 22.9336 25.0886C22.4727 25.7917 21.8242 26.3269 20.9883 26.6941C20.1602 27.0535 19.1953 27.2332 18.0938 27.2332C17.3984 27.2332 16.707 27.1433 16.0195 26.9636C15.3398 26.7761 14.7227 26.4714 14.168 26.0496C13.6133 25.6277 13.1719 25.0691 12.8438 24.3738C12.5156 23.6707 12.3516 22.8113 12.3516 21.7957H15.1875C15.1875 22.405 15.2695 22.9128 15.4336 23.3191C15.5977 23.7253 15.8203 24.0457 16.1016 24.28C16.3828 24.5144 16.6953 24.6824 17.0391 24.7839C17.3906 24.8855 17.7422 24.9363 18.0938 24.9363C18.6797 24.9363 19.1719 24.8386 19.5703 24.6433C19.9766 24.4402 20.2812 24.1589 20.4844 23.7996C20.6953 23.4324 20.8008 23.0144 20.8008 22.5457Z" fill="white"/>
</svg>
