<svg width="29" height="28" viewBox="0 0 29 28" fill="none" xmlns="http://www.w3.org/2000/svg">
<path fill-rule="evenodd" clip-rule="evenodd" d="M11.4159 0.00683594H5.5C2.73858 0.00683594 0.5 2.24541 0.5 5.00684V6.37189H11.4159V28.0068H17.5843V6.37189V0.00683594H11.4159ZM28.5 6.68434H20.7499V0.00689097H23.5C26.2614 0.00689097 28.5 2.24547 28.5 5.00689V6.68434ZM0.5 9.72453H8.25013V16.3727H0.5V9.72453ZM0.5 19.7254H8.25013V28.0068H5.5C2.73857 28.0068 0.5 25.7683 0.5 23.0068V19.7254ZM20.7499 19.7254H28.5V23.0068C28.5 25.7683 26.2614 28.0068 23.5 28.0068H20.7499V19.7254ZM28.443 9.72453H20.6929V16.3727H28.443V9.72453Z" fill="#3B3E44"/>
</svg>
