<svg width="47" height="16" viewBox="0 0 47 16" fill="none" xmlns="http://www.w3.org/2000/svg">
<path d="M20.4224 15.2618H16.6826L19.0217 0.79834H22.7613L20.4224 15.2618Z" fill="#00579F"/>
<path d="M33.9791 1.1519C33.2414 0.859252 32.0715 0.536133 30.6248 0.536133C26.9316 0.536133 24.3309 2.50552 24.315 5.32115C24.2843 7.39852 26.177 8.55234 27.5926 9.245C29.0395 9.95279 29.5313 10.4148 29.5313 11.0457C29.5166 12.0146 28.3621 12.4613 27.2854 12.4613C25.7923 12.4613 24.9923 12.231 23.7765 11.6919L23.2841 11.4608L22.7607 14.7075C23.6379 15.1071 25.2539 15.4618 26.9316 15.4773C30.8557 15.4773 33.4104 13.5384 33.4406 10.5379C33.4556 8.89141 32.4561 7.62981 30.3015 6.5989C28.9935 5.93712 28.1924 5.49089 28.1924 4.81377C28.2077 4.19821 28.8699 3.56772 30.3465 3.56772C31.5622 3.53684 32.4555 3.82908 33.1322 4.12152L33.4705 4.2751L33.9791 1.1519Z" fill="#00579F"/>
<path d="M38.9501 10.1379C39.2581 9.30699 40.4432 6.09114 40.4432 6.09114C40.4277 6.12202 40.7506 5.2449 40.9353 4.70644L41.1966 5.95269C41.1966 5.95269 41.9048 9.41477 42.0586 10.1379H38.9501ZM43.5664 0.79834H40.6737C39.7817 0.79834 39.1039 1.0597 38.719 1.99838L33.1641 15.2616H37.0881C37.0881 15.2616 37.7341 13.4764 37.873 13.092H42.6746C42.782 13.5998 43.1208 15.2616 43.1208 15.2616H46.5835L43.5664 0.79834Z" fill="#00579F"/>
<path d="M13.5604 0.79834L9.89788 10.661L9.49766 8.66076C8.82054 6.35271 6.69696 3.84506 4.32715 2.59819L7.68186 15.2464H11.6366L17.5149 0.79834H13.5604Z" fill="#00579F"/>
<path d="M6.49551 0.79834H0.478548L0.416992 1.09058C5.1106 2.29082 8.21908 5.18396 9.49621 8.66137L8.1882 2.01412C7.97285 1.09037 7.31107 0.828811 6.49551 0.79834Z" fill="#FAA61A"/>
</svg>
